# xmcd CD database file
#
# Track frame offsets:
#	150
#	26437
#	48759
#	97131
#	146381
#	180560
#	214309
#	255743
#	265020
#	285644
#
# Disc length: 4391 seconds
#
# Revision: 0
# Processed by: cddbd v1.4PL0 Copyright (c) Steve Scherf et al.
# Submitted via: CDex 1.50Beta7
#
DISCID=8c11250a
DTITLE=Hans Peter Neuber - Ocean of Peace
DYEAR=1900
DGENRE=New Age
TTITLE0=Water, The Beginning
TTITLE1=Das Meer
TTITLE2=Zeitwirbel - Eddy of Time
TTITLE3=Peace Waves
TTITLE4=Flackerndes Feuer
TTITLE5=Flowers
TTITLE6=AUM
TTITLE7=War and Church
TTITLE8=Tränen (Tears)
TTITLE9=Ocean of Peace
EXTD=
EXTT0=
EXTT1=
EXTT2=
EXTT3=
EXTT4=
EXTT5=
EXTT6=
EXTT7=
EXTT8=
EXTT9=
PLAYORDER=
